[img]http://img819.imageshack.us/img819/4058/webought.jpg[/img]
[code]
We Bought a Zoo 2011 CAM Xvid AC3-26K

Imdb: 
http://www.imdb.com/title/tt1389137/

Plot:
Set in Southern California, a father moves his young family to the countryside to renovate and re-open a 

struggling zoo.

Sources:
video -INFERNO
audio -INFERNO

Notes:
Encoded the video added a few filters to make it look nice :)


Greetz:
Xtreme Encode|FYA|ILLUMANTI|CM8|RX|VISION|HDSCENE|NIGHTMAREZ|xTriLL|DTRG|CRYS|REMIXHD|BIDA|RX|REFILL| 

INSPiRAL
To all the people who have helped me :P you know who you are

Anything to offer email us @: 26k@hushmail.me

Video
ID                                       : 0
Format                                   : MPEG-4 Visual
Format profile                           : Advanced Simple@L5
Format settings, BVOP                    : 2
Format settings, QPel                    : No
Format settings, GMC                     : No warppoints
Format settings, Matrix                  : Default (H.263)
Codec ID                                 : XVID
Codec ID/Hint                            : XviD
Duration                                 : 1h 58mn
Bit rate                                 : 1 700 Kbps
Width                                    : 624 pixels
Height                                   : 352 pixels
Display aspect ratio                     : 16:9
Frame rate                               : 29.970 fps
Color space                              : YUV
Chroma subsampling                       : 4:2:0
Bit depth                                : 8 bits
Scan type                                : Progressive
Compression mode                         : Lossy
Bits/(Pixel*Frame)                       : 0.258
Stream size                              : 1.41 GiB (92%)
Writing library                          : XviD 63

Audio
ID                                       : 1
Format                                   : AC-3
Format/Info                              : Audio Coding 3
Mode extension                           : CM (complete main)
Codec ID                                 : 2000
Duration                                 : 1h 58mn
Bit rate mode                            : Constant
Bit rate                                 : 128 Kbps
Channel(s)                               : 2 channels
Channel positions                        : Front: L R
Sampling rate                            : 48.0 KHz
Bit depth                                : 16 bits
Compression mode                         : Lossy
Stream size                              : 108 MiB (7%)
Alignment                                : Aligned on interleaves
Interleave, duration                     : 32 ms (0.96 video frame)

[/code]
Screens:
[img]http://img515.imageshack.us/img515/3918/vlcsnap2012011320h59m08.png[/img]
[img]http://img714.imageshack.us/img714/9971/vlcsnap2012011320h59m29.png[/img]
[img]http://img37.imageshack.us/img37/5954/vlcsnap2012011320h59m55.png[/img]
[img]http://img839.imageshack.us/img839/8607/vlcsnap2012011320h59m59.png[/img]
[img]http://img577.imageshack.us/img577/4373/vlcsnap2012011321h00m08.png[/img]

[img]http://img851.imageshack.us/img851/5503/26ks.jpg[/img]#
Thank you smallz for banner!